<?xml version="1.0" encoding="UTF-8" standalone="no"?>
<svg
   viewBox="0 0 191.91211 103.8457"
   width="191.91211"
   height="103.8457"
   role="img"
   aria-label="YV monogram"
   version="1.1"
   id="svg1"
   xmlns="http://www.w3.org/2000/svg"
   xmlns:svg="http://www.w3.org/2000/svg">
  <path
     d="m 98.136717,5.1924674 q -1.22851,0.073137 -3.902343,1.0238671 -2.673828,0.8776008 -3.830078,1.7552004 -2.818359,1.7552004 -3.830078,2.7059341 -1.011719,0.950733 -3.902344,4.973067 -5.636718,8.04467 -10.40625,16.308737 -4.769531,8.264069 -11.923828,20.989266 -2.673828,4.680534 -3.541015,7.532736 -0.867188,2.8522 -0.867188,8.264072 v 19.819134 q 0,2.632797 1.011719,4.607396 1.083984,1.901471 3.613281,3.071604 1.517578,0.585073 5.419922,1.462665 3.902344,0.804465 6.287109,0.877602 v 5.192472 H 24.281249 v -5.192472 q 2.023438,-0.146264 6.070313,-0.511933 4.046875,-0.438796 5.636719,-1.096996 2.601562,-1.097006 3.541015,-2.998467 1.011719,-1.901471 1.011719,-4.680534 V 64.064813 q 0,-1.170134 -1.445312,-4.241738 Q 37.722656,56.678343 35.771484,52.875402 31.435546,44.391945 26.160156,34.51894 20.884765,24.645939 16.982421,17.625138 14.597656,13.456536 12.718749,11.335669 10.912109,9.2148023 8.5273435,7.6058683 6.7929685,6.5088685 4.3359375,5.9238016 1.9511719,5.3387348 0,5.1924674 V 0 h 43.720703 v 5.1924674 q -7.371094,0.1462674 -10.40625,1.0238671 -3.035157,0.8776008 -3.035157,2.4865336 0,0.4388004 0.433594,1.5358019 0.433594,1.096999 1.228516,2.779066 0.939453,1.901468 2.240234,4.388001 1.300781,2.4134 2.457031,4.680534 3.396485,6.508868 6.9375,13.017736 3.541016,6.435735 9.25,16.820664 11.345703,-18.50273 17.271485,-28.814532 5.998047,-10.384936 5.998047,-12.43267 0,-1.682067 -1.228516,-2.7059341 Q 73.638671,6.9476678 71.615234,6.362601 69.519531,5.7775342 67.062499,5.6312677 64.605468,5.4118676 62.509765,5.1924674 V 0 h 35.626952 z m 93.775393,0 q -1.8789,0.073137 -4.55273,0.8776007 -2.67383,0.7313332 -4.40821,1.8283341 -2.45703,1.5358002 -3.97461,3.9491998 -1.44531,2.413401 -2.89062,5.704402 -4.8418,11.628202 -14.52539,36.274138 -9.68359,24.572805 -19.94531,51.266468 h -5.99805 Q 125.21094,76.790007 115.52735,50.535134 105.84375,24.280273 102.375,15.06547 101.50782,12.798336 100.0625,11.116269 98.617187,9.3610687 96.232417,7.8252684 94.281249,6.5820011 91.896484,5.9969343 89.511718,5.3387348 87.488281,5.1924674 V 0 h 42.419929 v 5.1924674 q -5.41993,0.2925339 -9.17774,1.0970008 -3.68555,0.8044671 -3.68555,2.8522003 0,0.8044668 0.28907,1.9014675 0.28906,1.097 0.50586,1.7552 2.67382,7.167069 8.67187,23.402671 5.99805,16.16247 17.05469,46.07401 5.49219,-13.52967 12.64648,-31.959277 7.1543,-18.429599 9.61133,-25.304134 2.38477,-6.655136 2.74609,-9.214803 0.4336,-2.559667 0.4336,-4.168601 0,-1.6820667 -1.51758,-2.7790664 -1.44531,-1.1701336 -3.90234,-1.9746006 -2.38477,-0.7313332 -4.8418,-1.0970008 -2.45703,-0.3656666 -4.98633,-0.5850668 V 0 h 38.15625 z"
     id="text1"
     aria-label="YV" />
</svg>
